<?xml version="1.0" encoding="UTF-8"?>
<svg width="188px" height="54px" viewBox="0 0 188 54" version="1.1" xmlns="http://www.w3.org/2000/svg" xmlns:xlink="http://www.w3.org/1999/xlink">
    <!-- Generator: Sketch 62 (91390) - https://sketch.com -->
    <title>codedb</title>
    <desc>Created with Sketch.</desc>
    <defs>
        <radialGradient cx="50%" cy="0%" fx="50%" fy="0%" r="116.981132%" gradientTransform="translate(0.500000,0.000000),scale(1.000000,0.854839),rotate(90.000000),translate(-0.500000,-0.000000)" id="radialGradient-1">
            <stop stop-color="#FFFFFF" stop-opacity="0.5" offset="0%"></stop>
            <stop stop-color="#000000" stop-opacity="0.5" offset="100%"></stop>
        </radialGradient>
        <linearGradient x1="50%" y1="0%" x2="50%" y2="100%" id="linearGradient-2">
            <stop stop-color="#0BCA92" offset="0%"></stop>
            <stop stop-color="#0F7D96" offset="100%"></stop>
        </linearGradient>
        <path d="M22.2236911,0 C34.4376253,0 44.3373849,4.63811049 44.3373849,10.3511116 C44.3373849,16.0683445 34.4333946,20.7022231 22.2236911,20.7022231 C10.0139876,20.7022231 0.109997329,16.0641126 0.109997329,10.3511116 C0.109997329,4.63811049 10.0139876,0 22.2236911,0 L22.2236911,0 Z M0.109997329,34.6292501 L0.109997329,42.5766694 C4.04451717,56.5544787 42.915881,53.8545567 44.3416156,41.8614863 L44.3416156,33.9225308 C42.3997397,47.0878243 3.21953721,48.0357593 0.109997329,34.6292501 L0.109997329,34.6292501 L0.109997329,34.6292501 Z M0,13.9397226 L0,21.7009403 C3.93451984,35.3528969 43.0216476,33.5078092 44.4516129,21.7982729 L44.4516129,14.0412871 C42.5055063,26.9018872 3.10953988,27.0330747 0,13.9397226 L0,13.9397226 Z M0,23.9692133 L0,31.9166326 C3.93451984,45.8944419 43.0216476,44.0070356 44.4516129,32.0139652 L44.4516129,24.0750097 C42.5055063,37.2403032 3.10953988,37.3757225 0,23.9692133 L0,23.9692133 Z" id="path-3"></path>
        <radialGradient cx="-48.9793348%" cy="33.7964738%" fx="-48.9793348%" fy="33.7964738%" r="167.959527%" gradientTransform="translate(-0.489793,0.337965),scale(1.000000,0.928105),rotate(5.966447),translate(0.489793,-0.337965)" id="radialGradient-4">
            <stop stop-color="#0BC792" offset="0%"></stop>
            <stop stop-color="#0F7896" offset="100%"></stop>
        </radialGradient>
        <filter x="-11.8%" y="-10.9%" width="123.5%" height="121.8%" filterUnits="objectBoundingBox" id="filter-5">
            <feGaussianBlur stdDeviation="0" in="SourceGraphic"></feGaussianBlur>
        </filter>
        <radialGradient cx="12.9983699%" cy="34.1007227%" fx="12.9983699%" fy="34.1007227%" r="281.538089%" gradientTransform="translate(0.129984,0.341007),scale(0.304331,1.000000),rotate(11.447543),translate(-0.129984,-0.341007)" id="radialGradient-6">
            <stop stop-color="#5A3CC1" offset="0%"></stop>
            <stop stop-color="#402A8C" offset="100%"></stop>
        </radialGradient>
        <radialGradient cx="50%" cy="0%" fx="50%" fy="0%" r="100%" gradientTransform="translate(0.500000,0.000000),scale(0.612324,1.000000),rotate(90.000000),translate(-0.500000,-0.000000)" id="radialGradient-7">
            <stop stop-color="#09BE92" offset="0%"></stop>
            <stop stop-color="#0F8395" offset="100%"></stop>
        </radialGradient>
    </defs>
    <g id="Page-1" stroke="none" stroke-width="1" fill="none" fill-rule="evenodd">
        <g id="codedb" fill-rule="nonzero">
            <g id="database-icon">
                <g id="Shape">
                    <use fill="#0BC792" xlink:href="#path-3"></use>
                    <use fill="url(#radialGradient-1)" xlink:href="#path-3"></use>
                    <use fill="url(#linearGradient-2)" xlink:href="#path-3"></use>
                </g>
                <path d="M35.7050691,53 C35.0828976,53 34.5621964,52.7796445 34.1389103,52.3484455 C33.7226379,51.9243913 33.5069124,51.4035147 33.5069124,50.779445 L33.5069124,34.8887578 C33.5069124,34.2319943 33.733952,33.7065972 34.1508861,33.2960265 C34.5709356,32.8823881 35.0869327,32.6682028 35.7050691,32.6682028 C36.3556279,32.6682028 36.876058,32.8937278 37.2827487,33.3080212 C37.6827499,33.7155 37.9032258,34.2364246 37.9032258,34.8887578 L37.9032258,50.779445 C37.9032258,51.3992623 37.693783,51.9154972 37.2945122,52.3362572 C36.8847891,52.7680322 36.3598222,53 35.7050691,53 Z M39.3778802,42.8341014 C39.3778802,40.7928881 39.6157968,39.0477795 40.0776831,37.596287 C40.5772645,36.0263367 41.3203042,34.8374821 42.2723873,34.0053282 C43.2850787,33.1202006 44.508267,32.6682028 45.9493088,32.6682028 C47.3931999,32.6682028 48.6192718,33.1296516 49.6341423,34.0357599 C50.583378,34.8832673 51.3229684,36.0782975 51.8209344,37.6431713 C52.2830772,39.0954699 52.5207373,40.8250018 52.5207373,42.8341014 C52.5207373,44.8432009 52.2830772,46.5727328 51.8209344,48.0250314 C51.3229684,49.5899053 50.583378,50.7849355 49.6341423,51.6324429 C48.6192718,52.5385511 47.3931999,53 45.9493088,53 C44.508267,53 43.2850787,52.5480022 42.2723873,51.6628746 C41.3203042,50.8307206 40.5772645,49.6418661 40.0776831,48.0719158 C39.6157968,46.6204233 39.3778802,44.8753147 39.3778802,42.8341014 Z M43.7741935,42.8458746 C43.7741935,44.0651513 43.8806764,45.1526567 44.0991981,46.1076939 C44.2917028,46.949025 44.5680137,47.6188889 44.9609354,48.0996304 C45.2271199,48.4253082 45.5518699,48.6036866 45.9493088,48.6036866 C46.3526754,48.6036866 46.6794241,48.4279888 46.9401795,48.0992529 C47.3293102,47.6086737 47.6055157,46.931593 47.7994194,46.0841475 C48.0178394,45.1295546 48.124424,44.0499119 48.124424,42.8458746 C48.124424,41.6418372 48.0178394,40.5621946 47.7994194,39.6076017 C47.6047745,38.7569167 47.3267143,38.0745606 46.9361944,37.5756656 C46.6764876,37.2438864 46.3517521,37.0645161 45.9493088,37.0645161 C45.5459421,37.0645161 45.2191934,37.240214 44.958438,37.5689499 C44.5693073,38.0595291 44.2931018,38.7366098 44.0991981,39.5840553 C43.8806764,40.5390925 43.7741935,41.6265979 43.7741935,42.8458746 Z" id="I0" stroke="#FFFFFF" stroke-width="2" fill="url(#radialGradient-4)" filter="url(#filter-5)"></path>
            </g>
            <g transform="translate(62.903226, 13.658986)">
                <path d="M11.8397051,24.5689217 C13.2302058,24.5689217 14.5542488,24.3439877 15.8118341,23.8941198 C17.0694194,23.4442519 18.2503226,22.7796743 19.3545438,21.9003871 C19.5181321,21.7367988 19.6408233,21.557874 19.7226175,21.3636129 C19.8044117,21.1693518 19.8453088,20.9699785 19.8453088,20.7654931 C19.8453088,20.3156252 19.7226175,19.9628879 19.477235,19.7072811 C19.2318525,19.4516743 18.9302366,19.3085346 18.5723871,19.2778618 C18.2145376,19.2471889 17.851576,19.364768 17.4835023,19.6305991 C16.6246636,20.2645038 15.7300399,20.760381 14.7996313,21.1182304 C13.8692227,21.4760799 12.8825806,21.6550046 11.8397051,21.6550046 C10.6332412,21.6550046 9.49834716,21.4147343 8.43502304,20.9341935 C7.37169892,20.4536528 6.43617819,19.7839631 5.62846083,18.9251244 C4.82074347,18.0662857 4.19195084,17.0694194 3.74208295,15.9345253 C3.29221505,14.7996313 3.06728111,13.577831 3.06728111,12.2691244 C3.06728111,10.9808664 3.29221505,9.76929032 3.74208295,8.63439631 C4.19195084,7.4995023 4.82074347,6.50263594 5.62846083,5.64379724 C6.43617819,4.78495853 7.37169892,4.11015668 8.43502304,3.61939171 C9.49834716,3.12862673 10.6332412,2.88324424 11.8397051,2.88324424 C13.1688602,2.88324424 14.2372965,3.05705684 15.0450138,3.40468203 C15.8527312,3.75230722 16.6348879,4.25329647 17.3914839,4.90764977 C17.7595576,5.19392934 18.1378556,5.32173272 18.5263779,5.29105991 C18.9149002,5.2603871 19.2471889,5.11724731 19.5232442,4.86164055 C19.7992995,4.60603379 19.9373272,4.28396928 19.9373272,3.895447 C19.9373272,3.71141014 19.9219908,3.55293395 19.891318,3.42001843 C19.8606452,3.28710292 19.7992995,3.1541874 19.7072811,3.02127189 C19.6152627,2.88835637 19.4874593,2.760553 19.323871,2.63786175 C18.1787527,1.69722888 17.0387465,1.02242704 15.9038525,0.613456221 C14.7689585,0.204485407 13.4142427,3.40536611e-15 11.8397051,3.40536611e-15 C10.1629247,3.40536611e-15 8.60883564,0.316952381 7.17743779,0.950857143 C5.74603994,1.5847619 4.49356682,2.45893702 3.42001843,3.57338249 C2.34647005,4.68782796 1.50807988,5.98631029 0.904847926,7.46882949 C0.301615975,8.95134869 0,10.551447 0,12.2691244 C0,14.0072504 0.301615975,15.6226851 0.904847926,17.1154286 C1.50807988,18.608172 2.34647005,19.9117665 3.42001843,21.026212 C4.49356682,22.1406575 5.75115207,23.0097204 7.19277419,23.6334009 C8.63439631,24.2570814 10.1833733,24.5689217 11.8397051,24.5689217 Z M31.010212,24.3848848 C32.6665438,24.3848848 34.1286144,24.0219232 35.396424,23.296 C36.6642335,22.5700768 37.6559877,21.5680983 38.3716866,20.2900645 C39.0873856,19.0120307 39.445235,17.5448479 39.445235,15.8885161 C39.445235,14.2117358 39.0809155,12.7356866 38.3522765,11.4603687 C37.6236375,10.1850507 36.6267711,9.1830722 35.3616774,8.45443318 C34.0965837,7.72579416 32.6409831,7.36147465 30.9948756,7.36147465 C29.348768,7.36147465 27.8913303,7.72579416 26.6225622,8.45443318 C25.3537942,9.1830722 24.3569278,10.1850507 23.6319631,11.4603687 C22.9069985,12.7356866 22.5445161,14.2117358 22.5445161,15.8885161 C22.5445161,17.5448479 22.9069985,19.0106728 23.6319631,20.2859908 C24.3569278,21.5613088 25.3537942,22.5632873 26.6225622,23.2919263 C27.8913303,24.0205653 29.3538802,24.3848848 31.010212,24.3848848 Z M31.010212,21.6243318 C29.9468879,21.6243318 29.0065745,21.3781505 28.1892719,20.885788 C27.3719693,20.3934255 26.7278402,19.7186237 26.2568848,18.8613825 C25.7859293,18.0041413 25.5504516,17.0131859 25.5504516,15.8885161 C25.5504516,14.7638464 25.7859293,13.7680184 26.2568848,12.9010323 C26.7278402,12.0340461 27.3719693,11.3541321 28.1892719,10.8612903 C29.0065745,10.3684485 29.9468879,10.1220276 31.010212,10.1220276 C32.0735361,10.1220276 33.0134501,10.3684485 33.8299539,10.8612903 C34.6464578,11.3541321 35.2854747,12.0340461 35.7470046,12.9010323 C36.2085346,13.7680184 36.4392995,14.7638464 36.4392995,15.8885161 C36.4392995,17.0131859 36.2085346,18.0041413 35.7470046,18.8613825 C35.2854747,19.7186237 34.6464578,20.3934255 33.8299539,20.885788 C33.0134501,21.3781505 32.0735361,21.6243318 31.010212,21.6243318 Z M51.7143594,24.3848848 C53.3093456,24.3848848 54.7407435,24.0116989 56.008553,23.2653272 C57.2763625,22.5189555 58.2834531,21.5016406 59.0298249,20.2133825 C59.7761966,18.9251244 60.1493825,17.473278 60.1493825,15.8578433 L60.1493825,15.8578433 L60.1493825,1.87104147 C60.1493825,1.40072504 60.0062427,1.02242704 59.7199631,0.736147465 C59.4336836,0.449867896 59.0553856,0.306728111 58.5850691,0.306728111 C58.1352012,0.306728111 57.7620154,0.449867896 57.4655115,0.736147465 C57.1690077,1.02242704 57.0207558,1.40072504 57.0207558,1.87104147 L57.0207558,1.87104147 L57.0207558,10.1527005 C56.3255054,9.29386175 55.4666667,8.61394777 54.4442396,8.11295853 C53.4218126,7.61196928 52.3073671,7.36147465 51.1009032,7.36147465 C49.6081598,7.36147465 48.2687803,7.73466052 47.082765,8.48103226 C45.8967496,9.22740399 44.9612289,10.2396068 44.2762028,11.5176406 C43.5911767,12.7956743 43.2486636,14.2424086 43.2486636,15.8578433 C43.2486636,17.473278 43.6218495,18.9251244 44.3682212,20.2133825 C45.1145929,21.5016406 46.1267957,22.5189555 47.4048295,23.2653272 C48.6828633,24.0116989 50.1193733,24.3848848 51.7143594,24.3848848 Z M51.7143594,21.6243318 C50.6919324,21.6243318 49.7666359,21.3738372 48.93847,20.8728479 C48.1103041,20.3718587 47.4559508,19.6817204 46.9754101,18.8024332 C46.4948694,17.9231459 46.2545991,16.941616 46.2545991,15.8578433 C46.2545991,14.7536221 46.4948694,13.7720922 46.9754101,12.9132535 C47.4559508,12.0544147 48.1103041,11.3745008 48.93847,10.8735115 C49.7666359,10.3725223 50.6919324,10.1220276 51.7143594,10.1220276 C52.757235,10.1220276 53.6876436,10.3725223 54.5055853,10.8735115 C55.3235269,11.3745008 55.9676559,12.0544147 56.4379724,12.9132535 C56.9082888,13.7720922 57.143447,14.7536221 57.143447,15.8578433 C57.143447,16.941616 56.9082888,17.9231459 56.4379724,18.8024332 C55.9676559,19.6817204 55.3235269,20.3718587 54.5055853,20.8728479 C53.6876436,21.3738372 52.757235,21.6243318 51.7143594,21.6243318 Z M73.5534009,24.3848848 C74.4940338,24.3848848 75.4806759,24.2110722 76.5133272,23.863447 C77.5459785,23.5158218 78.4099293,23.0659539 79.1051797,22.5138433 C79.4528049,22.2480123 79.6163932,21.9310599 79.5959447,21.5629862 C79.5754962,21.1949124 79.3914593,20.8575115 79.0438341,20.5507834 C78.7780031,20.3258495 78.4661628,20.2184946 78.1083134,20.2287189 C77.7504639,20.2389432 77.4181751,20.3565223 77.111447,20.5814562 C76.7024762,20.8881843 76.165702,21.1591275 75.5011244,21.3942857 C74.8365469,21.6294439 74.1873057,21.747023 73.5534009,21.747023 C72.3878341,21.747023 71.3551828,21.4914163 70.455447,20.9802028 C69.5557112,20.4689892 68.8502366,19.7737389 68.339023,18.8944516 C68.0026984,18.3159732 67.7770068,17.6843908 67.6619484,16.9997046 L67.6558341,16.9620645 L79.3198894,16.9620645 C79.7131306,16.9620645 80.0402013,16.8439031 80.3011017,16.6075803 L80.3320922,16.5786544 C80.5979232,16.3230476 80.7308387,16.0009831 80.7308387,15.6124608 C80.7308387,13.9970261 80.4292227,12.5707404 79.8259908,11.3336037 C79.2227588,10.096467 78.3485837,9.12516129 77.2034654,8.41968664 C76.0583472,7.71421198 74.6882949,7.36147465 73.0933088,7.36147465 C71.477874,7.36147465 70.0464762,7.72443625 68.7991152,8.45035945 C67.5517542,9.17628264 66.5753364,10.1782611 65.8698618,11.4562949 C65.1643871,12.7343287 64.8116498,14.2117358 64.8116498,15.8885161 C64.8116498,17.5448479 65.1848356,19.0120307 65.9312074,20.2900645 C66.6775791,21.5680983 67.7102304,22.5700768 69.0291613,23.296 C70.3480922,24.0219232 71.856172,24.3848848 73.5534009,24.3848848 Z M77.906424,14.5082396 L67.6904608,14.5082396 L67.6975739,14.4686383 C67.7978708,13.9281494 67.9583459,13.4206152 68.1789991,12.9460357 L68.2163318,12.8672442 C68.6457512,11.9777327 69.2745438,11.2773702 70.1027097,10.7661567 C70.9308756,10.2549432 71.9277419,9.99933641 73.0933088,9.99933641 C74.1157358,9.99933641 74.9847988,10.2344946 75.7004977,10.7048111 C76.4161966,11.1751275 76.9683072,11.8141444 77.3568295,12.6218618 C77.6239386,13.1771674 77.8040614,13.7832151 77.8971982,14.4400046 L77.906424,14.5082396 Z" id="Code" fill="url(#radialGradient-6)"></path>
                <path d="M93.8329217,24.3848848 C95.4279078,24.3848848 96.8593057,24.0116989 98.1271152,23.2653272 C99.3949247,22.5189555 100.402015,21.5016406 101.148387,20.2133825 C101.894759,18.9251244 102.267945,17.473278 102.267945,15.8578433 L102.267945,15.8578433 L102.267945,1.87104147 C102.267945,1.40072504 102.124805,1.02242704 101.838525,0.736147465 C101.552246,0.449867896 101.173948,0.306728111 100.703631,0.306728111 C100.253763,0.306728111 99.8805776,0.449867896 99.5840737,0.736147465 C99.2875699,1.02242704 99.139318,1.40072504 99.139318,1.87104147 L99.139318,1.87104147 L99.139318,10.1527005 C98.4440676,9.29386175 97.5852289,8.61394777 96.5628018,8.11295853 C95.5403748,7.61196928 94.4259293,7.36147465 93.2194654,7.36147465 C91.726722,7.36147465 90.3873425,7.73466052 89.2013272,8.48103226 C88.0153118,9.22740399 87.0797911,10.2396068 86.394765,11.5176406 C85.7097389,12.7956743 85.3672258,14.2424086 85.3672258,15.8578433 C85.3672258,17.473278 85.7404117,18.9251244 86.4867834,20.2133825 C87.2331551,21.5016406 88.2453579,22.5189555 89.5233917,23.2653272 C90.8014255,24.0116989 92.2379355,24.3848848 93.8329217,24.3848848 Z M93.8329217,21.6243318 C92.8104946,21.6243318 91.8851982,21.3738372 91.0570323,20.8728479 C90.2288664,20.3718587 89.5745131,19.6817204 89.0939724,18.8024332 C88.6134316,17.9231459 88.3731613,16.941616 88.3731613,15.8578433 C88.3731613,14.7536221 88.6134316,13.7720922 89.0939724,12.9132535 C89.5745131,12.0544147 90.2288664,11.3745008 91.0570323,10.8735115 C91.8851982,10.3725223 92.8104946,10.1220276 93.8329217,10.1220276 C94.8757972,10.1220276 95.8062058,10.3725223 96.6241475,10.8735115 C97.4420891,11.3745008 98.0862181,12.0544147 98.5565346,12.9132535 C99.026851,13.7720922 99.2620092,14.7536221 99.2620092,15.8578433 C99.2620092,16.941616 99.026851,17.9231459 98.5565346,18.8024332 C98.0862181,19.6817204 97.4420891,20.3718587 96.6241475,20.8728479 C95.8062058,21.3738372 94.8757972,21.6243318 93.8329217,21.6243318 Z M116.224074,24.3848848 C117.839508,24.3848848 119.281131,24.0116989 120.54894,23.2653272 C121.81675,22.5189555 122.82384,21.5016406 123.570212,20.2133825 C124.316584,18.9251244 124.68977,17.473278 124.68977,15.8578433 C124.68977,14.2424086 124.347257,12.7956743 123.66223,11.5176406 C122.977204,10.2396068 122.041684,9.22740399 120.855668,8.48103226 C119.669653,7.73466052 118.330273,7.36147465 116.83753,7.36147465 C115.631066,7.36147465 114.521733,7.61196928 113.50953,8.11295853 C112.497327,8.61394777 111.633376,9.29386175 110.917677,10.1527005 L110.917677,10.1527005 L110.917677,1.87104147 C110.917677,1.40072504 110.774538,1.02242704 110.488258,0.736147465 C110.201978,0.449867896 109.82368,0.306728111 109.353364,0.306728111 C108.903496,0.306728111 108.53031,0.449867896 108.233806,0.736147465 C107.937303,1.02242704 107.789051,1.40072504 107.789051,1.87104147 L107.789051,1.87104147 L107.789051,15.8578433 C107.809499,17.473278 108.187797,18.9251244 108.923945,20.2133825 C109.660092,21.5016406 110.662071,22.5189555 111.92988,23.2653272 C113.19769,24.0116989 114.629088,24.3848848 116.224074,24.3848848 Z M116.224074,21.6243318 C115.201647,21.6243318 114.27635,21.3738372 113.448184,20.8728479 C112.620018,20.3718587 111.970777,19.6817204 111.500461,18.8024332 C111.030144,17.9231459 110.794986,16.941616 110.794986,15.8578433 C110.794986,14.7536221 111.030144,13.7720922 111.500461,12.9132535 C111.970777,12.0544147 112.620018,11.3745008 113.448184,10.8735115 C114.27635,10.3725223 115.201647,10.1220276 116.224074,10.1220276 C117.266949,10.1220276 118.197358,10.3725223 119.0153,10.8735115 C119.833241,11.3745008 120.482482,12.0544147 120.963023,12.9132535 C121.443564,13.7720922 121.683834,14.7536221 121.683834,15.8578433 C121.683834,16.941616 121.443564,17.9231459 120.963023,18.8024332 C120.482482,19.6817204 119.833241,20.3718587 119.0153,20.8728479 C118.197358,21.3738372 117.266949,21.6243318 116.224074,21.6243318 Z" id="db" fill="url(#radialGradient-7)"></path>
            </g>
        </g>
    </g>
</svg>