<?xml version="1.0" encoding="UTF-8"?>
<svg width="231px" height="73px" viewBox="0 0 231 73" version="1.1" xmlns="http://www.w3.org/2000/svg" xmlns:xlink="http://www.w3.org/1999/xlink">
    <!-- Generator: Sketch 62 (91390) - https://sketch.com -->
    <title>codedb</title>
    <desc>Created with Sketch.</desc>
    <defs>
        <radialGradient cx="50%" cy="0%" fx="50%" fy="0%" r="116.981132%" gradientTransform="translate(0.500000,0.000000),scale(1.000000,0.854839),rotate(90.000000),translate(-0.500000,-0.000000)" id="radialGradient-1">
            <stop stop-color="#FFFFFF" stop-opacity="0.5" offset="0%"></stop>
            <stop stop-color="#000000" stop-opacity="0.5" offset="100%"></stop>
        </radialGradient>
        <linearGradient x1="50%" y1="0%" x2="50%" y2="100%" id="linearGradient-2">
            <stop stop-color="#0BCA92" offset="0%"></stop>
            <stop stop-color="#0F7D96" offset="100%"></stop>
        </linearGradient>
        <path d="M27.3522352,0 C42.3847696,0 54.5690891,5.70844368 54.5690891,12.7398296 C54.5690891,19.776424 42.3795626,25.4796592 27.3522352,25.4796592 C12.3249078,25.4796592 0.135381328,19.7712155 0.135381328,12.7398296 C0.135381328,5.70844368 12.3249078,0 27.3522352,0 L27.3522352,0 Z M0.135381328,42.6206156 L0.135381328,52.4020546 C4.97786729,69.6055122 52.8195458,66.2825313 54.5742961,51.5218293 L54.5742961,41.7508071 C52.184295,57.9542453 3.96250733,59.1209345 0.135381328,42.6206156 L0.135381328,42.6206156 L0.135381328,42.6206156 Z M0,17.1565817 L0,26.7088496 C4.84248596,43.5112578 52.9497202,41.2403805 54.7096774,26.8286436 L54.7096774,17.2815841 C52.3144693,33.110015 3.827126,33.2714765 0,17.1565817 L0,17.1565817 Z M0,29.5005703 L0,39.2820094 C4.84248596,56.4854669 52.9497202,54.1625053 54.7096774,39.4018033 L54.7096774,29.6307811 C52.3144693,45.8342193 3.827126,46.0008892 0,29.5005703 L0,29.5005703 Z" id="path-3"></path>
        <radialGradient cx="-48.9793348%" cy="33.7964738%" fx="-48.9793348%" fy="33.7964738%" r="167.959527%" gradientTransform="translate(-0.489793,0.337965),scale(1.000000,0.928105),rotate(5.966447),translate(0.489793,-0.337965)" id="radialGradient-4">
            <stop stop-color="#0BC792" offset="0%"></stop>
            <stop stop-color="#0F7896" offset="100%"></stop>
        </radialGradient>
        <filter x="-43.0%" y="-39.9%" width="186.0%" height="179.8%" filterUnits="objectBoundingBox" id="filter-5">
            <feGaussianBlur stdDeviation="0" in="SourceGraphic"></feGaussianBlur>
        </filter>
        <radialGradient cx="12.9983699%" cy="34.1007227%" fx="12.9983699%" fy="34.1007227%" r="281.538089%" gradientTransform="translate(0.129984,0.341007),scale(0.304331,1.000000),rotate(11.447543),translate(-0.129984,-0.341007)" id="radialGradient-6">
            <stop stop-color="#5A3CC1" offset="0%"></stop>
            <stop stop-color="#402A8C" offset="100%"></stop>
        </radialGradient>
        <radialGradient cx="50%" cy="0%" fx="50%" fy="0%" r="100%" gradientTransform="translate(0.500000,0.000000),scale(0.612324,1.000000),rotate(90.000000),translate(-0.500000,-0.000000)" id="radialGradient-7">
            <stop stop-color="#09BE92" offset="0%"></stop>
            <stop stop-color="#0F8395" offset="100%"></stop>
        </radialGradient>
    </defs>
    <g id="Page-1" stroke="none" stroke-width="1" fill="none" fill-rule="evenodd">
        <g id="codedb" fill-rule="nonzero">
            <g id="database-icon">
                <g id="Shape">
                    <use fill="#0BC792" xlink:href="#path-3"></use>
                    <use fill="url(#radialGradient-1)" xlink:href="#path-3"></use>
                    <use fill="url(#linearGradient-2)" xlink:href="#path-3"></use>
                </g>
                <path d="M37.9700461,62.4977785 L37.9700461,42.9400096 C37.9700461,41.1611939 38.6150844,39.756108 39.7380092,38.6503218 C40.8749528,37.5307308 42.2678955,36.937788 43.9447005,36.937788 C45.717187,36.937788 47.1175238,37.5817596 48.2194625,38.7042979 C49.291298,39.7961702 49.9193548,41.1811302 49.9193548,42.9400096 L49.9193548,62.4977785 C49.9193548,64.1614937 49.3409471,65.5381392 48.2723983,66.6641987 C47.156814,67.8398253 45.7360614,68.5 43.9447005,68.5 C42.2497379,68.5 40.8356266,67.8920808 39.6841178,66.7190457 C38.564171,65.5781627 37.9700461,64.1806295 37.9700461,62.4977785 Z M56.5529954,68.5 C53.9296344,68.5 51.715036,67.6538981 49.8760959,66.0466002 C48.3098927,64.6776839 47.0365967,62.751 46.2110747,60.1567708 C45.5551801,58.0956015 45.1958525,55.620042 45.1958525,52.718894 C45.1958525,49.817746 45.5551801,47.3421865 46.2110747,45.2810172 C47.0365967,42.686788 48.3098927,40.7601042 49.8760959,39.3911879 C51.715036,37.7838899 53.9296344,36.937788 56.5529954,36.937788 C59.1891786,36.937788 61.4167531,37.8008737 63.2654994,39.4514924 C64.818889,40.8384075 66.0766633,42.7673356 66.8949161,45.3387211 C67.5519649,47.4035176 67.9101382,49.8600739 67.9101382,52.718894 C67.9101382,55.5777141 67.5519649,58.0342704 66.8949161,60.099067 C66.0766633,62.6704524 64.818889,64.5993806 63.2654994,65.9862956 C61.4167531,67.6369143 59.1891786,68.5 56.5529954,68.5 Z" id="I0" stroke="#FFFFFF" stroke-width="9" fill="url(#radialGradient-4)" filter="url(#filter-5)"></path>
            </g>
            <g transform="translate(77.419355, 16.811060)">
                <path d="M14.5719447,30.2386728 C16.2833303,30.2386728 17.9129217,29.961831 19.4607189,29.4081475 C21.0085161,28.8544639 22.4619355,28.0365223 23.820977,26.9543226 C24.0223164,26.7529831 24.173321,26.532768 24.2739908,26.2936774 C24.3746605,26.0545868 24.4249954,25.8092043 24.4249954,25.55753 C24.4249954,25.0038464 24.2739908,24.5697081 23.9719816,24.2551152 C23.6699724,23.9405223 23.2987527,23.7643502 22.8583226,23.7265991 C22.4178925,23.6888479 21.9711705,23.8335607 21.5181567,24.1607373 C20.4611244,24.9409278 19.3600492,25.5512381 18.2149309,25.9916682 C17.0698126,26.4320983 15.8554839,26.6523134 14.5719447,26.6523134 C13.0870661,26.6523134 11.6902734,26.356596 10.3815668,25.7651613 C9.07286022,25.1737266 7.92145008,24.3494931 6.92733641,23.2924608 C5.93322273,22.2354286 5.15932412,21.0085161 4.60564055,19.6117235 C4.05195699,18.2149309 3.77511521,16.7111767 3.77511521,15.1004608 C3.77511521,13.5149124 4.05195699,12.0237419 4.60564055,10.6269493 C5.15932412,9.23015668 5.93322273,8.00324424 6.92733641,6.94621198 C7.92145008,5.88917972 9.07286022,5.05865438 10.3815668,4.45463594 C11.6902734,3.85061751 13.0870661,3.54860829 14.5719447,3.54860829 C16.207828,3.54860829 17.5228264,3.76253149 18.5169401,4.19037788 C19.5110538,4.61822427 20.4737081,5.23482642 21.4049032,6.04018433 C21.8579171,6.39252842 22.3235146,6.54982488 22.8016959,6.51207373 C23.2798771,6.47432258 23.6888479,6.29815054 24.0286083,5.9835576 C24.3683687,5.66896467 24.5382488,5.27257757 24.5382488,4.79439631 C24.5382488,4.5678894 24.5193733,4.37284178 24.4816221,4.20925346 C24.443871,4.04566513 24.3683687,3.8820768 24.2551152,3.71848848 C24.1418618,3.55490015 23.9845653,3.39760369 23.7832258,3.24659908 C22.3738495,2.08889708 20.970765,1.25837174 19.5739724,0.755023041 C18.1771797,0.251674347 16.5098372,4.19121982e-15 14.5719447,4.19121982e-15 C12.5082151,4.19121982e-15 10.59549,0.390095238 8.83376959,1.17028571 C7.07204916,1.95047619 5.53054378,3.02638402 4.20925346,4.39800922 C2.88796313,5.76963441 1.85609831,7.36776651 1.11365899,9.19240553 C0.371219662,11.0170445 0,12.9863963 0,15.1004608 C0,17.2396928 0.371219662,19.2279201 1.11365899,21.0651429 C1.85609831,22.9023656 2.88796313,24.5067896 4.20925346,25.8784147 C5.53054378,27.2500399 7.07834101,28.3196559 8.85264516,29.0872627 C10.6269493,29.8548694 12.5333825,30.2386728 14.5719447,30.2386728 Z M38.1664147,30.0121659 C40.204977,30.0121659 42.0044485,29.5654439 43.5648295,28.672 C45.1252104,27.7785561 46.345831,26.5453518 47.2266912,24.9723871 C48.1075515,23.3994224 48.5479816,21.593659 48.5479816,19.5550968 C48.5479816,17.4913671 48.0995883,15.6746912 47.2028018,14.1050691 C46.3060154,12.535447 45.0791029,11.3022427 43.5220645,10.4054562 C41.9650261,9.50866974 40.1735177,9.0602765 38.1475392,9.0602765 C36.1215607,9.0602765 34.3277911,9.50866974 32.7662304,10.4054562 C31.2046697,11.3022427 29.9777573,12.535447 29.0854931,14.1050691 C28.1932289,15.6746912 27.7470968,17.4913671 27.7470968,19.5550968 C27.7470968,21.593659 28.1932289,23.3977512 29.0854931,24.9673733 C29.9777573,26.5369954 31.2046697,27.7701997 32.7662304,28.6669862 C34.3277911,29.5637727 36.1278525,30.0121659 38.1664147,30.0121659 Z M38.1664147,26.6145622 C36.8577081,26.6145622 35.7003994,26.3115699 34.6944885,25.7055853 C33.6885776,25.0996006 32.8958034,24.2690753 32.3161659,23.2140092 C31.7365284,22.1589432 31.4467097,20.9393057 31.4467097,19.5550968 C31.4467097,18.1708879 31.7365284,16.9452535 32.3161659,15.8781935 C32.8958034,14.8111336 33.6885776,13.9743164 34.6944885,13.3677419 C35.7003994,12.7611674 36.8577081,12.4578802 38.1664147,12.4578802 C39.4751214,12.4578802 40.6319386,12.7611674 41.6368664,13.3677419 C42.6417942,13.9743164 43.4282765,14.8111336 43.9963134,15.8781935 C44.5643502,16.9452535 44.8483687,18.1708879 44.8483687,19.5550968 C44.8483687,20.9393057 44.5643502,22.1589432 43.9963134,23.2140092 C43.4282765,24.2690753 42.6417942,25.0996006 41.6368664,25.7055853 C40.6319386,26.3115699 39.4751214,26.6145622 38.1664147,26.6145622 Z M63.6484424,30.0121659 C65.6115023,30.0121659 67.3732227,29.5528602 68.9336037,28.6342488 C70.4939846,27.7156375 71.7334808,26.4635576 72.6520922,24.8780092 C73.5707035,23.2924608 74.0300092,21.505573 74.0300092,19.5173456 L74.0300092,19.5173456 L74.0300092,2.30282028 C74.0300092,1.72396928 73.8538372,1.25837174 73.5014931,0.90602765 C73.149149,0.553683564 72.6835515,0.377511521 72.1047005,0.377511521 C71.5510169,0.377511521 71.0917112,0.553683564 70.7267834,0.90602765 C70.3618556,1.25837174 70.1793917,1.72396928 70.1793917,2.30282028 L70.1793917,2.30282028 L70.1793917,12.4956313 C69.3236989,11.4385991 68.2666667,10.6017819 67.0082949,9.98517972 C65.7499232,9.36857757 64.378298,9.0602765 62.8934194,9.0602765 C61.0561966,9.0602765 59.4077296,9.51958218 57.9480184,10.4381935 C56.4883072,11.3568049 55.3368971,12.6025929 54.493788,14.1755576 C53.650679,15.7485223 53.2291244,17.5291183 53.2291244,19.5173456 C53.2291244,21.505573 53.6884301,23.2924608 54.6070415,24.8780092 C55.5256528,26.4635576 56.7714409,27.7156375 58.3444055,28.6342488 C59.9173702,29.5528602 61.6853825,30.0121659 63.6484424,30.0121659 Z M63.6484424,26.6145622 C62.3900707,26.6145622 61.2512442,26.3062611 60.2319631,25.689659 C59.212682,25.0730568 58.4073241,24.2236559 57.8158894,23.1414562 C57.2244547,22.0592565 56.9287373,20.8512197 56.9287373,19.5173456 C56.9287373,18.1583041 57.2244547,16.9502673 57.8158894,15.893235 C58.4073241,14.8362028 59.212682,13.9993856 60.2319631,13.3827834 C61.2512442,12.7661813 62.3900707,12.4578802 63.6484424,12.4578802 C64.9319816,12.4578802 66.0770998,12.7661813 67.0837972,13.3827834 C68.0904946,13.9993856 68.8832688,14.8362028 69.4621198,15.893235 C70.0409708,16.9502673 70.3303963,18.1583041 70.3303963,19.5173456 C70.3303963,20.8512197 70.0409708,22.0592565 69.4621198,23.1414562 C68.8832688,24.2236559 68.0904946,25.0730568 67.0837972,25.689659 C66.0770998,26.3062611 64.9319816,26.6145622 63.6484424,26.6145622 Z M90.5272627,30.0121659 C91.6849647,30.0121659 92.8992934,29.7982427 94.1702488,29.3703963 C95.4412043,28.9425499 96.5045284,28.3888664 97.3602212,27.7093456 C97.7880676,27.382169 97.9894071,26.9920737 97.9642396,26.5390599 C97.9390722,26.0860461 97.7125653,25.6707834 97.2847189,25.2932719 C96.9575422,25.0164301 96.5737389,24.8843011 96.1333088,24.8968848 C95.6928786,24.9094685 95.2839078,25.0541813 94.9063963,25.331023 C94.4030476,25.7085346 93.7424025,26.0420031 92.9244608,26.3314286 C92.1065192,26.6208541 91.3074531,26.7655668 90.5272627,26.7655668 C89.0927189,26.7655668 87.8217634,26.4509739 86.7143963,25.821788 C85.6070292,25.1926022 84.7387527,24.3369094 84.1095668,23.2547097 C83.6956287,22.5427362 83.4178545,21.7654041 83.2762441,20.9227133 L83.2687189,20.8763871 L97.6244793,20.8763871 C98.1084684,20.8763871 98.511017,20.7309577 98.8321252,20.4400988 L98.8702673,20.4044977 C99.1974439,20.0899048 99.3610323,19.6935177 99.3610323,19.2153364 C99.3610323,17.2271091 98.9898126,15.4716805 98.2473733,13.9490507 C97.5049339,12.4264209 96.4290261,11.2309677 95.0196498,10.3626912 C93.6102734,9.49441475 91.9240553,9.0602765 89.9609954,9.0602765 C87.972768,9.0602765 86.2110476,9.50699846 84.6758341,10.4004424 C83.1406206,11.2938863 81.9388756,12.5270906 81.0705991,14.1000553 C80.2023226,15.67302 79.7681843,17.4913671 79.7681843,19.5550968 C79.7681843,21.593659 80.22749,23.3994224 81.1461014,24.9723871 C82.0647127,26.5453518 83.3356682,27.7785561 84.9589677,28.672 C86.5822673,29.5654439 88.4383656,30.0121659 90.5272627,30.0121659 Z M95.8848295,17.8562949 L83.3113364,17.8562949 L83.320091,17.8075548 C83.4435333,17.1423377 83.6410411,16.5176802 83.9126142,15.9335824 L83.9585622,15.8366083 C84.4870783,14.7418249 85.260977,13.8798402 86.2802581,13.2506544 C87.2995392,12.6214685 88.5264516,12.3068756 89.9609954,12.3068756 C91.2193671,12.3068756 92.2889831,12.5963011 93.1698433,13.1751521 C94.0507035,13.7540031 94.7302243,14.5404854 95.2084055,15.5345991 C95.5371551,16.2180522 95.7588449,16.963957 95.8734747,17.7723134 L95.8848295,17.8562949 Z" id="Code" fill="url(#radialGradient-6)"></path>
                <path d="M115.486673,30.0121659 C117.449733,30.0121659 119.211453,29.5528602 120.771834,28.6342488 C122.332215,27.7156375 123.571711,26.4635576 124.490323,24.8780092 C125.408934,23.2924608 125.86824,21.505573 125.86824,19.5173456 L125.86824,19.5173456 L125.86824,2.30282028 C125.86824,1.72396928 125.692068,1.25837174 125.339724,0.90602765 C124.987379,0.553683564 124.521782,0.377511521 123.942931,0.377511521 C123.389247,0.377511521 122.929942,0.553683564 122.565014,0.90602765 C122.200086,1.25837174 122.017622,1.72396928 122.017622,2.30282028 L122.017622,2.30282028 L122.017622,12.4956313 C121.161929,11.4385991 120.104897,10.6017819 118.846525,9.98517972 C117.588154,9.36857757 116.216528,9.0602765 114.73165,9.0602765 C112.894427,9.0602765 111.24596,9.51958218 109.786249,10.4381935 C108.326538,11.3568049 107.175127,12.6025929 106.332018,14.1755576 C105.488909,15.7485223 105.067355,17.5291183 105.067355,19.5173456 C105.067355,21.505573 105.526661,23.2924608 106.445272,24.8780092 C107.363883,26.4635576 108.609671,27.7156375 110.182636,28.6342488 C111.755601,29.5528602 113.523613,30.0121659 115.486673,30.0121659 Z M115.486673,26.6145622 C114.228301,26.6145622 113.089475,26.3062611 112.070194,25.689659 C111.050912,25.0730568 110.245555,24.2236559 109.65412,23.1414562 C109.062685,22.0592565 108.766968,20.8512197 108.766968,19.5173456 C108.766968,18.1583041 109.062685,16.9502673 109.65412,15.893235 C110.245555,14.8362028 111.050912,13.9993856 112.070194,13.3827834 C113.089475,12.7661813 114.228301,12.4578802 115.486673,12.4578802 C116.770212,12.4578802 117.91533,12.7661813 118.922028,13.3827834 C119.928725,13.9993856 120.721499,14.8362028 121.30035,15.893235 C121.879201,16.9502673 122.168627,18.1583041 122.168627,19.5173456 C122.168627,20.8512197 121.879201,22.0592565 121.30035,23.1414562 C120.721499,24.2236559 119.928725,25.0730568 118.922028,25.689659 C117.91533,26.3062611 116.770212,26.6145622 115.486673,26.6145622 Z M143.045014,30.0121659 C145.033241,30.0121659 146.807545,29.5528602 148.367926,28.6342488 C149.928307,27.7156375 151.167803,26.4635576 152.086415,24.8780092 C153.005026,23.2924608 153.464332,21.505573 153.464332,19.5173456 C153.464332,17.5291183 153.042777,15.7485223 152.199668,14.1755576 C151.356559,12.6025929 150.205149,11.3568049 148.745438,10.4381935 C147.285727,9.51958218 145.63726,9.0602765 143.800037,9.0602765 C142.315158,9.0602765 140.949825,9.36857757 139.704037,9.98517972 C138.458249,10.6017819 137.394925,11.4385991 136.514065,12.4956313 L136.514065,12.4956313 L136.514065,2.30282028 C136.514065,1.72396928 136.337892,1.25837174 135.985548,0.90602765 C135.633204,0.553683564 135.167607,0.377511521 134.588756,0.377511521 C134.035072,0.377511521 133.575767,0.553683564 133.210839,0.90602765 C132.845911,1.25837174 132.663447,1.72396928 132.663447,2.30282028 L132.663447,2.30282028 L132.663447,19.5173456 C132.688614,21.505573 133.154212,23.2924608 134.06024,24.8780092 C134.966267,26.4635576 136.199472,27.7156375 137.759853,28.6342488 C139.320233,29.5528602 141.081954,30.0121659 143.045014,30.0121659 Z M143.045014,26.6145622 C141.786642,26.6145622 140.647816,26.3062611 139.628535,25.689659 C138.609253,25.0730568 137.810187,24.2236559 137.231336,23.1414562 C136.652485,22.0592565 136.36306,20.8512197 136.36306,19.5173456 C136.36306,18.1583041 136.652485,16.9502673 137.231336,15.893235 C137.810187,14.8362028 138.609253,13.9993856 139.628535,13.3827834 C140.647816,12.7661813 141.786642,12.4578802 143.045014,12.4578802 C144.328553,12.4578802 145.473671,12.7661813 146.480369,13.3827834 C147.487066,13.9993856 148.286132,14.8362028 148.877567,15.893235 C149.469002,16.9502673 149.764719,18.1583041 149.764719,19.5173456 C149.764719,20.8512197 149.469002,22.0592565 148.877567,23.1414562 C148.286132,24.2236559 147.487066,25.0730568 146.480369,25.689659 C145.473671,26.3062611 144.328553,26.6145622 143.045014,26.6145622 Z" id="db" fill="url(#radialGradient-7)"></path>
            </g>
        </g>
    </g>
</svg>